<svg xmlns="http://www.w3.org/2000/svg" viewBox="0 0 200 210"><circle cx="100" cy="112" r="88" fill="#B39DDB" opacity="0.16"></circle><ellipse cx="84" cy="176" rx="10" ry="6" fill="#B39DDB"></ellipse><ellipse cx="116" cy="176" rx="10" ry="6" fill="#B39DDB"></ellipse><circle cx="55" cy="122" r="8" fill="#B39DDB"></circle><circle cx="145" cy="122" r="8" fill="#B39DDB"></circle><rect x="60" y="52" width="80" height="120" rx="40" fill="#B39DDB"></rect><rect x="69" y="61" width="62" height="102" rx="31" fill="#DCE4FA"></rect><path d="M118 70 l-26 38" stroke="#fff" stroke-width="5" stroke-linecap="round" opacity="0.55"></path><path d="M125 84 l-13 19" stroke="#fff" stroke-width="4" stroke-linecap="round" opacity="0.45"></path><g fill="#FDFDFF" opacity="0.45"><circle cx="100" cy="53" r="1.8"></circle><circle cx="100" cy="63" r="1.8"></circle><circle cx="95" cy="58" r="1.8"></circle><circle cx="105" cy="58" r="1.8"></circle><circle cx="100" cy="58" r="1.3"></circle></g><ellipse cx="85" cy="118" rx="8" ry="9.0" fill="#FDFDFF"></ellipse><circle cx="85.0" cy="119.1" r="4.2" fill="#1B1E33"></circle><circle cx="86.8" cy="116.9" r="1.3" fill="#fff"></circle><ellipse cx="115" cy="118" rx="8" ry="9.0" fill="#FDFDFF"></ellipse><circle cx="115.0" cy="119.1" r="4.2" fill="#1B1E33"></circle><circle cx="116.8" cy="116.9" r="1.3" fill="#fff"></circle><path d="M90 136 Q100 143 110 136" stroke="#1B1E33" stroke-width="4" fill="none" stroke-linecap="round"></path><ellipse cx="78" cy="130" rx="8" ry="4.5" fill="#F27C86" opacity="0.4"></ellipse><ellipse cx="122" cy="130" rx="8" ry="4.5" fill="#F27C86" opacity="0.4"></ellipse><path d="M122 68 Q123.3 72.7 128 74 Q123.3 75.3 122 80 Q120.7 75.3 116 74 Q120.7 72.7 122 68Z" fill="#fff"></path></svg>