<svg xmlns="http://www.w3.org/2000/svg" width="200" height="210" viewBox="0 0 200 210"><path d="M100.0,22.0L116.9,37.9L139.0,30.9L147.4,52.6L170.4,55.9L168.5,79.0L187.7,92.0L176.0,112.0L187.7,132.0L168.5,145.0L170.4,168.1L147.4,171.4L139.0,193.1L116.9,186.1L100.0,202.0L83.1,186.1L61.0,193.1L52.6,171.4L29.6,168.1L31.5,145.0L12.3,132.0L24.0,112.0L12.3,92.0L31.5,79.0L29.6,55.9L52.6,52.6L61.0,30.9L83.1,37.9Z" fill="#5E6474" opacity="0.22"></path><g fill="#5E6474"><circle cx="70" cy="122" r="30"></circle><circle cx="100" cy="100" r="38"></circle><circle cx="132" cy="120" r="30"></circle><circle cx="100" cy="132" r="40"></circle></g><circle cx="42" cy="162" r="8" fill="#5E6474" opacity="0.6"></circle><circle cx="162" cy="150" r="6" fill="#5E6474" opacity="0.5"></circle><ellipse cx="100" cy="150" rx="26" ry="14" fill="#7A8092" opacity="0.5"></ellipse><g fill="#FDFDFF" opacity="0.45"><circle cx="100" cy="145" r="1.8"></circle><circle cx="100" cy="155" r="1.8"></circle><circle cx="95" cy="150" r="1.8"></circle><circle cx="105" cy="150" r="1.8"></circle><circle cx="100" cy="150" r="1.3"></circle></g><path d="M74 106 h14 M112 106 h14" stroke="#1B1E33" stroke-width="4.5" stroke-linecap="round"></path><path d="M140 84 a8 8 0 1 1 -8 -8" stroke="#7A8092" stroke-width="3.5" fill="none" stroke-linecap="round"></path><path d="M88 132 q6 -7 12 0 q6 7 12 0" stroke="#1B1E33" stroke-width="3.5" fill="none" stroke-linecap="round"></path></svg>