<svg xmlns="http://www.w3.org/2000/svg" width="200" height="210" viewBox="0 0 200 210"><circle cx="100" cy="112" r="88" fill="#6E7BA6" opacity="0.16"></circle><ellipse cx="100" cy="174" rx="62" ry="11" fill="#6E7BA6"></ellipse><ellipse cx="46" cy="150" rx="8" ry="17" fill="#6E7BA6"></ellipse><ellipse cx="154" cy="146" rx="7" ry="14" fill="#6E7BA6"></ellipse><path d="M100 62 C68 64 54 90 50 122 C46 152 64 170 100 170 C136 170 154 152 150 122 C146 90 132 64 100 62 Z" fill="#6E7BA6"></path><ellipse cx="58" cy="134" rx="9" ry="20" transform="rotate(14 58 134)" fill="#6E7BA6"></ellipse><ellipse cx="142" cy="134" rx="9" ry="20" transform="rotate(-14 142 134)" fill="#6E7BA6"></ellipse><ellipse cx="100" cy="148" rx="30" ry="15" fill="#93A0C6" opacity="0.65"></ellipse><g fill="#FDFDFF" opacity="0.45"><circle cx="100" cy="143" r="1.8"></circle><circle cx="100" cy="153" r="1.8"></circle><circle cx="95" cy="148" r="1.8"></circle><circle cx="105" cy="148" r="1.8"></circle><circle cx="100" cy="148" r="1.3"></circle></g><ellipse cx="82" cy="110" rx="10" ry="11.2" fill="#FDFDFF"></ellipse><circle cx="82.0" cy="111.4" r="5.2" fill="#1B1E33"></circle><circle cx="84.2" cy="108.6" r="1.6" fill="#fff"></circle><ellipse cx="118" cy="110" rx="10" ry="11.2" fill="#FDFDFF"></ellipse><circle cx="118.0" cy="111.4" r="5.2" fill="#1B1E33"></circle><circle cx="120.2" cy="108.6" r="1.6" fill="#fff"></circle><line x1="72.1" y1="95.3" x2="87.9" y2="92.7" stroke="#1B1E33" stroke-width="4" stroke-linecap="round"></line><line x1="112.1" y1="92.7" x2="127.9" y2="95.3" stroke="#1B1E33" stroke-width="4" stroke-linecap="round"></line><path d="M89 132 Q100 139 111 132" stroke="#1B1E33" stroke-width="4" fill="none" stroke-linecap="round"></path><ellipse cx="74" cy="124" rx="8" ry="4.5" fill="#F27C86" opacity="0.4"></ellipse><ellipse cx="126" cy="124" rx="8" ry="4.5" fill="#F27C86" opacity="0.4"></ellipse><path d="M68 116 c 2.0999999999999996 3.5 2.0999999999999996 5.6 0 7 c -2.0999999999999996 -1.4 -2.0999999999999996 -3.5 0 -7 z" fill="#9FD8FF"></path><path d="M150 54 Q151.3 58.7 156 60 Q151.3 61.3 150 66 Q148.7 61.3 144 60 Q148.7 58.7 150 54Z" fill="#FFE9C2"></path></svg>